M48
; DRILL file {KiCad 7.0.5} date Thu Dec 14 14:21:52 2023
; FORMAT={-:-/ absolute / metric / decimal}
; #@! TF.CreationDate,2023-12-14T14:21:52+09:00
; #@! TF.GenerationSoftware,Kicad,Pcbnew,7.0.5
; #@! TF.FileFunction,MixedPlating,1,2
FMAT,2
METRIC
; #@! TA.AperFunction,Plated,PTH,ViaDrill
T1C0.400
; #@! TA.AperFunction,Plated,PTH,ComponentDrill
T2C1.000
; #@! TA.AperFunction,Plated,PTH,ComponentDrill
T3C2.000
; #@! TA.AperFunction,NonPlated,NPTH,ComponentDrill
T4C2.600
%
G90
G05
T1
X149.225Y-62.23
X149.225Y-67.31
X149.225Y-87.63
X149.225Y-92.71
X149.225Y-97.79
X149.225Y-118.11
X149.225Y-123.19
X151.384Y-81.28
X151.384Y-111.76
X155.575Y-62.23
X155.575Y-67.31
X155.575Y-76.835
X155.575Y-107.315
X155.575Y-118.11
X155.575Y-123.19
X155.65Y-75.565
X155.65Y-78.105
X155.65Y-80.645
X155.65Y-111.125
X179.07Y-65.405
X179.07Y-71.755
X179.07Y-83.185
X179.07Y-89.535
X179.07Y-100.965
X179.07Y-107.315
X179.07Y-118.745
X179.07Y-125.095
X179.202Y-63.82
X179.202Y-70.17
X179.202Y-81.6
X179.202Y-87.95
X179.202Y-99.38
X179.202Y-105.73
X179.202Y-117.17
X179.202Y-123.52
X184.15Y-62.865
X184.15Y-69.215
X184.15Y-80.645
X184.15Y-86.995
X184.15Y-98.425
X184.15Y-104.775
X184.15Y-116.205
X184.15Y-122.555
X184.282Y-61.28
X184.282Y-67.63
X184.282Y-79.06
X184.282Y-85.41
X184.282Y-96.84
X184.282Y-103.19
X184.282Y-114.63
X184.282Y-120.98
X192.683Y-62.23
X192.683Y-64.77
X192.683Y-67.31
X192.683Y-69.85
X192.683Y-80.01
X192.683Y-82.55
X192.683Y-85.09
X192.683Y-87.63
X192.683Y-97.79
X192.683Y-100.33
X192.683Y-102.87
X192.683Y-105.41
X192.683Y-115.57
X192.683Y-118.11
X192.683Y-120.65
X192.683Y-123.19
T2
X137.16Y-71.12
X137.16Y-73.665
X137.16Y-76.205
X137.16Y-78.745
X137.16Y-81.285
X137.16Y-83.825
X137.16Y-86.365
X137.16Y-88.905
X137.16Y-91.445
X137.16Y-93.985
X137.16Y-96.525
X137.16Y-99.065
X137.16Y-101.605
X137.16Y-104.145
X137.16Y-106.685
X137.16Y-109.225
X137.16Y-111.765
X137.16Y-114.3
X142.24Y-64.77
X142.24Y-67.31
X142.24Y-69.85
X142.24Y-72.39
X142.24Y-74.93
X142.24Y-80.01
X142.24Y-82.55
X142.24Y-85.09
X142.24Y-87.63
X142.24Y-90.17
X142.24Y-95.25
X142.24Y-97.79
X142.24Y-100.33
X142.24Y-102.87
X142.24Y-105.41
X142.24Y-110.49
X142.24Y-113.03
X142.24Y-115.57
X142.24Y-118.11
X142.24Y-120.65
X162.56Y-64.77
X162.56Y-67.31
X162.56Y-69.85
X162.56Y-72.39
X162.56Y-74.93
X162.56Y-80.01
X162.56Y-82.55
X162.56Y-85.09
X162.56Y-87.63
X162.56Y-90.17
X162.56Y-95.255
X162.56Y-97.795
X162.56Y-100.335
X162.56Y-102.875
X162.56Y-105.415
X162.56Y-110.49
X162.56Y-113.03
X162.56Y-115.57
X162.56Y-118.11
X162.56Y-120.65
X167.64Y-71.12
X167.64Y-73.66
X167.64Y-76.2
X167.64Y-78.74
X167.64Y-81.28
X167.64Y-83.82
X167.64Y-86.36
X167.64Y-88.9
X167.64Y-91.44
X167.64Y-93.98
X167.64Y-96.52
X167.64Y-99.06
X167.64Y-101.6
X167.64Y-104.14
X167.64Y-106.68
X167.64Y-109.22
X167.64Y-111.76
X167.64Y-114.3
X175.26Y-60.965
X175.26Y-63.505
X175.26Y-66.045
X175.26Y-68.585
X175.26Y-71.125
X175.26Y-78.74
X175.26Y-81.28
X175.26Y-83.82
X175.26Y-86.36
X175.26Y-88.9
X175.26Y-96.52
X175.26Y-99.06
X175.26Y-101.6
X175.26Y-104.14
X175.26Y-106.68
X175.26Y-114.31
X175.26Y-116.85
X175.26Y-119.39
X175.26Y-121.93
X175.26Y-124.47
X195.58Y-60.96
X195.58Y-63.5
X195.58Y-66.04
X195.58Y-68.58
X195.58Y-71.12
X195.58Y-78.745
X195.58Y-81.285
X195.58Y-83.825
X195.58Y-86.365
X195.58Y-88.905
X195.58Y-96.525
X195.58Y-99.065
X195.58Y-101.605
X195.58Y-104.145
X195.58Y-106.685
X195.58Y-114.315
X195.58Y-116.855
X195.58Y-119.395
X195.58Y-121.935
X195.58Y-124.475
T4
X138.43Y-62.23
X138.43Y-123.19
X166.37Y-62.23
X166.37Y-123.19
T3
G00X171.45Y-64.5
M15
G01X171.45Y-62.5
M16
G05
G00X171.45Y-79.93
M15
G01X171.45Y-69.93
M16
G05
G00X171.45Y-97.71
M15
G01X171.45Y-87.71
M16
G05
G00X171.45Y-115.49
M15
G01X171.45Y-105.49
M16
G05
G00X171.45Y-122.92
M15
G01X171.45Y-120.92
M16
G05
G00X178.42Y-74.93
M15
G01X192.42Y-74.93
M16
G05
G00X178.42Y-92.71
M15
G01X192.42Y-92.71
M16
G05
G00X178.42Y-110.49
M15
G01X192.42Y-110.49
M16
G05
T0
M30
