%TF.GenerationSoftware,KiCad,Pcbnew,7.0.5*%
%TF.CreationDate,2023-12-14T14:21:54+09:00*%
%TF.ProjectId,analog_sw2,616e616c-6f67-45f7-9377-322e6b696361,rev?*%
%TF.SameCoordinates,Original*%
%TF.FileFunction,Paste,Top*%
%TF.FilePolarity,Positive*%
%FSLAX46Y46*%
G04 Gerber Fmt 4.6, Leading zero omitted, Abs format (unit mm)*
G04 Created by KiCad (PCBNEW 7.0.5) date 2023-12-14 14:21:54*
%MOMM*%
%LPD*%
G01*
G04 APERTURE LIST*
G04 Aperture macros list*
%AMRoundRect*
0 Rectangle with rounded corners*
0 $1 Rounding radius*
0 $2 $3 $4 $5 $6 $7 $8 $9 X,Y pos of 4 corners*
0 Add a 4 corners polygon primitive as box body*
4,1,4,$2,$3,$4,$5,$6,$7,$8,$9,$2,$3,0*
0 Add four circle primitives for the rounded corners*
1,1,$1+$1,$2,$3*
1,1,$1+$1,$4,$5*
1,1,$1+$1,$6,$7*
1,1,$1+$1,$8,$9*
0 Add four rect primitives between the rounded corners*
20,1,$1+$1,$2,$3,$4,$5,0*
20,1,$1+$1,$4,$5,$6,$7,0*
20,1,$1+$1,$6,$7,$8,$9,0*
20,1,$1+$1,$8,$9,$2,$3,0*%
G04 Aperture macros list end*
%ADD10RoundRect,0.150000X-0.650000X-0.150000X0.650000X-0.150000X0.650000X0.150000X-0.650000X0.150000X0*%
%ADD11RoundRect,0.237500X-0.287500X-0.237500X0.287500X-0.237500X0.287500X0.237500X-0.287500X0.237500X0*%
%ADD12RoundRect,0.150000X0.512500X0.150000X-0.512500X0.150000X-0.512500X-0.150000X0.512500X-0.150000X0*%
G04 APERTURE END LIST*
D10*
%TO.C,U18*%
X149150000Y-103505000D03*
X149150000Y-104775000D03*
X149150000Y-106045000D03*
X149150000Y-107315000D03*
X149150000Y-108585000D03*
X149150000Y-109855000D03*
X149150000Y-111125000D03*
X149150000Y-112395000D03*
X155650000Y-112395000D03*
X155650000Y-111125000D03*
X155650000Y-109855000D03*
X155650000Y-108585000D03*
X155650000Y-107315000D03*
X155650000Y-106045000D03*
X155650000Y-104775000D03*
X155650000Y-103505000D03*
%TD*%
%TO.C,U17*%
X149150000Y-73025000D03*
X149150000Y-74295000D03*
X149150000Y-75565000D03*
X149150000Y-76835000D03*
X149150000Y-78105000D03*
X149150000Y-79375000D03*
X149150000Y-80645000D03*
X149150000Y-81915000D03*
X155650000Y-81915000D03*
X155650000Y-80645000D03*
X155650000Y-79375000D03*
X155650000Y-78105000D03*
X155650000Y-76835000D03*
X155650000Y-75565000D03*
X155650000Y-74295000D03*
X155650000Y-73025000D03*
%TD*%
D11*
%TO.C,D9*%
X190895000Y-97790000D03*
X192645000Y-97790000D03*
%TD*%
D12*
%TO.C,U8*%
X181477500Y-119070000D03*
X181477500Y-118120000D03*
X181477500Y-117170000D03*
X179202500Y-117170000D03*
X179202500Y-119070000D03*
%TD*%
%TO.C,U11*%
X186557500Y-105090000D03*
X186557500Y-104140000D03*
X186557500Y-103190000D03*
X184282500Y-103190000D03*
X184282500Y-105090000D03*
%TD*%
D11*
%TO.C,D6*%
X190895000Y-82550000D03*
X192645000Y-82550000D03*
%TD*%
%TO.C,D15*%
X190895000Y-120650000D03*
X192645000Y-120650000D03*
%TD*%
D12*
%TO.C,U4*%
X186557500Y-116530000D03*
X186557500Y-115580000D03*
X186557500Y-114630000D03*
X184282500Y-114630000D03*
X184282500Y-116530000D03*
%TD*%
%TO.C,U9*%
X186557500Y-69530000D03*
X186557500Y-68580000D03*
X186557500Y-67630000D03*
X184282500Y-67630000D03*
X184282500Y-69530000D03*
%TD*%
D11*
%TO.C,D12*%
X190895000Y-105410000D03*
X192645000Y-105410000D03*
%TD*%
%TO.C,D8*%
X190895000Y-87630000D03*
X192645000Y-87630000D03*
%TD*%
%TO.C,D4*%
X190895000Y-69850000D03*
X192645000Y-69850000D03*
%TD*%
%TO.C,D11*%
X190895000Y-102870000D03*
X192645000Y-102870000D03*
%TD*%
D12*
%TO.C,U5*%
X181477500Y-65720000D03*
X181477500Y-64770000D03*
X181477500Y-63820000D03*
X179202500Y-63820000D03*
X179202500Y-65720000D03*
%TD*%
D11*
%TO.C,D7*%
X190895000Y-85090000D03*
X192645000Y-85090000D03*
%TD*%
%TO.C,D14*%
X190895000Y-118110000D03*
X192645000Y-118110000D03*
%TD*%
%TO.C,D3*%
X190895000Y-67310000D03*
X192645000Y-67310000D03*
%TD*%
%TO.C,D1*%
X190895000Y-62230000D03*
X192645000Y-62230000D03*
%TD*%
D12*
%TO.C,U2*%
X186557500Y-80960000D03*
X186557500Y-80010000D03*
X186557500Y-79060000D03*
X184282500Y-79060000D03*
X184282500Y-80960000D03*
%TD*%
%TO.C,U1*%
X186557500Y-63180000D03*
X186557500Y-62230000D03*
X186557500Y-61280000D03*
X184282500Y-61280000D03*
X184282500Y-63180000D03*
%TD*%
%TO.C,U15*%
X181477500Y-107630000D03*
X181477500Y-106680000D03*
X181477500Y-105730000D03*
X179202500Y-105730000D03*
X179202500Y-107630000D03*
%TD*%
%TO.C,U16*%
X181477500Y-125420000D03*
X181477500Y-124470000D03*
X181477500Y-123520000D03*
X179202500Y-123520000D03*
X179202500Y-125420000D03*
%TD*%
%TO.C,U3*%
X186557500Y-98740000D03*
X186557500Y-97790000D03*
X186557500Y-96840000D03*
X184282500Y-96840000D03*
X184282500Y-98740000D03*
%TD*%
%TO.C,U10*%
X186557500Y-87310000D03*
X186557500Y-86360000D03*
X186557500Y-85410000D03*
X184282500Y-85410000D03*
X184282500Y-87310000D03*
%TD*%
%TO.C,U12*%
X186557500Y-122880000D03*
X186557500Y-121930000D03*
X186557500Y-120980000D03*
X184282500Y-120980000D03*
X184282500Y-122880000D03*
%TD*%
%TO.C,U14*%
X179202500Y-89850000D03*
X179202500Y-87950000D03*
X181477500Y-87950000D03*
X181477500Y-88900000D03*
X181477500Y-89850000D03*
%TD*%
%TO.C,U7*%
X181477500Y-101280000D03*
X181477500Y-100330000D03*
X181477500Y-99380000D03*
X179202500Y-99380000D03*
X179202500Y-101280000D03*
%TD*%
%TO.C,U6*%
X181477500Y-83500000D03*
X181477500Y-82550000D03*
X181477500Y-81600000D03*
X179202500Y-81600000D03*
X179202500Y-83500000D03*
%TD*%
D11*
%TO.C,D13*%
X190895000Y-115570000D03*
X192645000Y-115570000D03*
%TD*%
%TO.C,D2*%
X190895000Y-64770000D03*
X192645000Y-64770000D03*
%TD*%
D12*
%TO.C,U13*%
X181477500Y-72070000D03*
X181477500Y-71120000D03*
X181477500Y-70170000D03*
X179202500Y-70170000D03*
X179202500Y-72070000D03*
%TD*%
D11*
%TO.C,D16*%
X190895000Y-123190000D03*
X192645000Y-123190000D03*
%TD*%
%TO.C,D10*%
X190895000Y-100330000D03*
X192645000Y-100330000D03*
%TD*%
%TO.C,D5*%
X190895000Y-80010000D03*
X192645000Y-80010000D03*
%TD*%
M02*
