%TF.GenerationSoftware,KiCad,Pcbnew,7.0.5*%
%TF.CreationDate,2023-12-14T14:21:54+09:00*%
%TF.ProjectId,analog_sw2,616e616c-6f67-45f7-9377-322e6b696361,rev?*%
%TF.SameCoordinates,Original*%
%TF.FileFunction,Soldermask,Top*%
%TF.FilePolarity,Negative*%
%FSLAX46Y46*%
G04 Gerber Fmt 4.6, Leading zero omitted, Abs format (unit mm)*
G04 Created by KiCad (PCBNEW 7.0.5) date 2023-12-14 14:21:54*
%MOMM*%
%LPD*%
G01*
G04 APERTURE LIST*
G04 Aperture macros list*
%AMRoundRect*
0 Rectangle with rounded corners*
0 $1 Rounding radius*
0 $2 $3 $4 $5 $6 $7 $8 $9 X,Y pos of 4 corners*
0 Add a 4 corners polygon primitive as box body*
4,1,4,$2,$3,$4,$5,$6,$7,$8,$9,$2,$3,0*
0 Add four circle primitives for the rounded corners*
1,1,$1+$1,$2,$3*
1,1,$1+$1,$4,$5*
1,1,$1+$1,$6,$7*
1,1,$1+$1,$8,$9*
0 Add four rect primitives between the rounded corners*
20,1,$1+$1,$2,$3,$4,$5,0*
20,1,$1+$1,$4,$5,$6,$7,0*
20,1,$1+$1,$6,$7,$8,$9,0*
20,1,$1+$1,$8,$9,$2,$3,0*%
G04 Aperture macros list end*
%ADD10R,1.700000X1.700000*%
%ADD11O,1.700000X1.700000*%
%ADD12RoundRect,0.150000X-0.650000X-0.150000X0.650000X-0.150000X0.650000X0.150000X-0.650000X0.150000X0*%
%ADD13RoundRect,0.237500X-0.287500X-0.237500X0.287500X-0.237500X0.287500X0.237500X-0.287500X0.237500X0*%
%ADD14RoundRect,0.650000X0.650000X-6.350000X0.650000X6.350000X-0.650000X6.350000X-0.650000X-6.350000X0*%
%ADD15RoundRect,0.150000X0.512500X0.150000X-0.512500X0.150000X-0.512500X-0.150000X0.512500X-0.150000X0*%
%ADD16RoundRect,0.650000X-8.350000X-0.650000X8.350000X-0.650000X8.350000X0.650000X-8.350000X0.650000X0*%
%ADD17RoundRect,0.650000X0.650000X-1.850000X0.650000X1.850000X-0.650000X1.850000X-0.650000X-1.850000X0*%
%ADD18C,2.600000*%
G04 APERTURE END LIST*
D10*
%TO.C,J22*%
X137160000Y-114300000D03*
%TD*%
%TO.C,J21*%
X137160000Y-71120000D03*
%TD*%
%TO.C,J20*%
X167640000Y-71120000D03*
%TD*%
%TO.C,J19*%
X167640000Y-114300000D03*
%TD*%
%TO.C,J17*%
X137160000Y-73665000D03*
D11*
X137160000Y-76205000D03*
X137160000Y-78745000D03*
X137160000Y-81285000D03*
X137160000Y-83825000D03*
X137160000Y-86365000D03*
X137160000Y-88905000D03*
D10*
X137160000Y-91445000D03*
X137160000Y-93985000D03*
X137160000Y-96525000D03*
X137160000Y-99065000D03*
X137160000Y-101605000D03*
X137160000Y-104145000D03*
X137160000Y-106685000D03*
X137160000Y-109225000D03*
X137160000Y-111765000D03*
%TD*%
D12*
%TO.C,U18*%
X149150000Y-103505000D03*
X149150000Y-104775000D03*
X149150000Y-106045000D03*
X149150000Y-107315000D03*
X149150000Y-108585000D03*
X149150000Y-109855000D03*
X149150000Y-111125000D03*
X149150000Y-112395000D03*
X155650000Y-112395000D03*
X155650000Y-111125000D03*
X155650000Y-109855000D03*
X155650000Y-108585000D03*
X155650000Y-107315000D03*
X155650000Y-106045000D03*
X155650000Y-104775000D03*
X155650000Y-103505000D03*
%TD*%
%TO.C,U17*%
X149150000Y-73025000D03*
X149150000Y-74295000D03*
X149150000Y-75565000D03*
X149150000Y-76835000D03*
X149150000Y-78105000D03*
X149150000Y-79375000D03*
X149150000Y-80645000D03*
X149150000Y-81915000D03*
X155650000Y-81915000D03*
X155650000Y-80645000D03*
X155650000Y-79375000D03*
X155650000Y-78105000D03*
X155650000Y-76835000D03*
X155650000Y-75565000D03*
X155650000Y-74295000D03*
X155650000Y-73025000D03*
%TD*%
D11*
%TO.C,J16*%
X162560000Y-120650000D03*
X162560000Y-118110000D03*
X162560000Y-115570000D03*
X162560000Y-113030000D03*
X162560000Y-110490000D03*
%TD*%
D10*
%TO.C,J1*%
X175260000Y-60965000D03*
D11*
X175260000Y-63505000D03*
X175260000Y-66045000D03*
X175260000Y-68585000D03*
X175260000Y-71125000D03*
%TD*%
D13*
%TO.C,D9*%
X190895000Y-97790000D03*
X192645000Y-97790000D03*
%TD*%
D14*
%TO.C,P3*%
X171450000Y-92710000D03*
%TD*%
D15*
%TO.C,U8*%
X181477500Y-119070000D03*
X181477500Y-118120000D03*
X181477500Y-117170000D03*
X179202500Y-117170000D03*
X179202500Y-119070000D03*
%TD*%
%TO.C,U11*%
X186557500Y-105090000D03*
X186557500Y-104140000D03*
X186557500Y-103190000D03*
X184282500Y-103190000D03*
X184282500Y-105090000D03*
%TD*%
D13*
%TO.C,D6*%
X190895000Y-82550000D03*
X192645000Y-82550000D03*
%TD*%
D10*
%TO.C,J7*%
X195580000Y-96525000D03*
D11*
X195580000Y-99065000D03*
X195580000Y-101605000D03*
X195580000Y-104145000D03*
X195580000Y-106685000D03*
%TD*%
D13*
%TO.C,D15*%
X190895000Y-120650000D03*
X192645000Y-120650000D03*
%TD*%
D15*
%TO.C,U4*%
X186557500Y-116530000D03*
X186557500Y-115580000D03*
X186557500Y-114630000D03*
X184282500Y-114630000D03*
X184282500Y-116530000D03*
%TD*%
D16*
%TO.C,P6*%
X185420000Y-74930000D03*
%TD*%
D17*
%TO.C,P5*%
X171450000Y-121920000D03*
%TD*%
D11*
%TO.C,J10*%
X142240000Y-90170000D03*
X142240000Y-87630000D03*
X142240000Y-85090000D03*
X142240000Y-82550000D03*
D10*
X142240000Y-80010000D03*
%TD*%
D14*
%TO.C,P4*%
X171450000Y-110490000D03*
%TD*%
D15*
%TO.C,U9*%
X186557500Y-69530000D03*
X186557500Y-68580000D03*
X186557500Y-67630000D03*
X184282500Y-67630000D03*
X184282500Y-69530000D03*
%TD*%
D10*
%TO.C,J2*%
X175260000Y-78740000D03*
D11*
X175260000Y-81280000D03*
X175260000Y-83820000D03*
X175260000Y-86360000D03*
X175260000Y-88900000D03*
%TD*%
D16*
%TO.C,P7*%
X185420000Y-92710000D03*
%TD*%
D13*
%TO.C,D12*%
X190895000Y-105410000D03*
X192645000Y-105410000D03*
%TD*%
%TO.C,D8*%
X190895000Y-87630000D03*
X192645000Y-87630000D03*
%TD*%
D11*
%TO.C,J14*%
X162560000Y-80010000D03*
X162560000Y-82550000D03*
X162560000Y-85090000D03*
X162560000Y-87630000D03*
X162560000Y-90170000D03*
%TD*%
D10*
%TO.C,J8*%
X195580000Y-114315000D03*
D11*
X195580000Y-116855000D03*
X195580000Y-119395000D03*
X195580000Y-121935000D03*
X195580000Y-124475000D03*
%TD*%
D18*
%TO.C,REF\u002A\u002A*%
X138430000Y-62230000D03*
%TD*%
D14*
%TO.C,P2*%
X171450000Y-74930000D03*
%TD*%
D11*
%TO.C,J18*%
X167640000Y-73660000D03*
X167640000Y-76200000D03*
X167640000Y-78740000D03*
X167640000Y-81280000D03*
X167640000Y-83820000D03*
X167640000Y-86360000D03*
X167640000Y-88900000D03*
X167640000Y-91440000D03*
X167640000Y-93980000D03*
X167640000Y-96520000D03*
X167640000Y-99060000D03*
X167640000Y-101600000D03*
X167640000Y-104140000D03*
X167640000Y-106680000D03*
X167640000Y-109220000D03*
X167640000Y-111760000D03*
%TD*%
%TO.C,J12*%
X142240000Y-120650000D03*
X142240000Y-118110000D03*
X142240000Y-115570000D03*
X142240000Y-113030000D03*
D10*
X142240000Y-110490000D03*
%TD*%
%TO.C,J4*%
X175260000Y-114310000D03*
D11*
X175260000Y-116850000D03*
X175260000Y-119390000D03*
X175260000Y-121930000D03*
X175260000Y-124470000D03*
%TD*%
D13*
%TO.C,D4*%
X190895000Y-69850000D03*
X192645000Y-69850000D03*
%TD*%
D10*
%TO.C,J3*%
X175260000Y-96520000D03*
D11*
X175260000Y-99060000D03*
X175260000Y-101600000D03*
X175260000Y-104140000D03*
X175260000Y-106680000D03*
%TD*%
D13*
%TO.C,D11*%
X190895000Y-102870000D03*
X192645000Y-102870000D03*
%TD*%
D15*
%TO.C,U5*%
X181477500Y-65720000D03*
X181477500Y-64770000D03*
X181477500Y-63820000D03*
X179202500Y-63820000D03*
X179202500Y-65720000D03*
%TD*%
D10*
%TO.C,J6*%
X195580000Y-78745000D03*
D11*
X195580000Y-81285000D03*
X195580000Y-83825000D03*
X195580000Y-86365000D03*
X195580000Y-88905000D03*
%TD*%
D13*
%TO.C,D7*%
X190895000Y-85090000D03*
X192645000Y-85090000D03*
%TD*%
%TO.C,D14*%
X190895000Y-118110000D03*
X192645000Y-118110000D03*
%TD*%
D18*
%TO.C,REF\u002A\u002A*%
X166370000Y-123190000D03*
%TD*%
%TO.C,REF\u002A\u002A*%
X166370000Y-62230000D03*
%TD*%
D17*
%TO.C,P1*%
X171450000Y-63500000D03*
%TD*%
D13*
%TO.C,D3*%
X190895000Y-67310000D03*
X192645000Y-67310000D03*
%TD*%
D11*
%TO.C,J13*%
X162560000Y-74930000D03*
X162560000Y-72390000D03*
X162560000Y-69850000D03*
X162560000Y-67310000D03*
X162560000Y-64770000D03*
%TD*%
D10*
%TO.C,J5*%
X195580000Y-60960000D03*
D11*
X195580000Y-63500000D03*
X195580000Y-66040000D03*
X195580000Y-68580000D03*
X195580000Y-71120000D03*
%TD*%
%TO.C,J11*%
X142240000Y-105410000D03*
X142240000Y-102870000D03*
X142240000Y-100330000D03*
X142240000Y-97790000D03*
D10*
X142240000Y-95250000D03*
%TD*%
D13*
%TO.C,D1*%
X190895000Y-62230000D03*
X192645000Y-62230000D03*
%TD*%
D15*
%TO.C,U2*%
X186557500Y-80960000D03*
X186557500Y-80010000D03*
X186557500Y-79060000D03*
X184282500Y-79060000D03*
X184282500Y-80960000D03*
%TD*%
%TO.C,U1*%
X186557500Y-63180000D03*
X186557500Y-62230000D03*
X186557500Y-61280000D03*
X184282500Y-61280000D03*
X184282500Y-63180000D03*
%TD*%
%TO.C,U15*%
X181477500Y-107630000D03*
X181477500Y-106680000D03*
X181477500Y-105730000D03*
X179202500Y-105730000D03*
X179202500Y-107630000D03*
%TD*%
D11*
%TO.C,J15*%
X162560000Y-105415000D03*
X162560000Y-102875000D03*
X162560000Y-100335000D03*
X162560000Y-97795000D03*
X162560000Y-95255000D03*
%TD*%
D15*
%TO.C,U16*%
X181477500Y-125420000D03*
X181477500Y-124470000D03*
X181477500Y-123520000D03*
X179202500Y-123520000D03*
X179202500Y-125420000D03*
%TD*%
%TO.C,U3*%
X186557500Y-98740000D03*
X186557500Y-97790000D03*
X186557500Y-96840000D03*
X184282500Y-96840000D03*
X184282500Y-98740000D03*
%TD*%
%TO.C,U10*%
X186557500Y-87310000D03*
X186557500Y-86360000D03*
X186557500Y-85410000D03*
X184282500Y-85410000D03*
X184282500Y-87310000D03*
%TD*%
%TO.C,U12*%
X186557500Y-122880000D03*
X186557500Y-121930000D03*
X186557500Y-120980000D03*
X184282500Y-120980000D03*
X184282500Y-122880000D03*
%TD*%
%TO.C,U14*%
X179202500Y-89850000D03*
X179202500Y-87950000D03*
X181477500Y-87950000D03*
X181477500Y-88900000D03*
X181477500Y-89850000D03*
%TD*%
%TO.C,U7*%
X181477500Y-101280000D03*
X181477500Y-100330000D03*
X181477500Y-99380000D03*
X179202500Y-99380000D03*
X179202500Y-101280000D03*
%TD*%
%TO.C,U6*%
X181477500Y-83500000D03*
X181477500Y-82550000D03*
X181477500Y-81600000D03*
X179202500Y-81600000D03*
X179202500Y-83500000D03*
%TD*%
D16*
%TO.C,P8*%
X185420000Y-110490000D03*
%TD*%
D13*
%TO.C,D13*%
X190895000Y-115570000D03*
X192645000Y-115570000D03*
%TD*%
%TO.C,D2*%
X190895000Y-64770000D03*
X192645000Y-64770000D03*
%TD*%
D15*
%TO.C,U13*%
X181477500Y-72070000D03*
X181477500Y-71120000D03*
X181477500Y-70170000D03*
X179202500Y-70170000D03*
X179202500Y-72070000D03*
%TD*%
D11*
%TO.C,J9*%
X142240000Y-74930000D03*
X142240000Y-72390000D03*
X142240000Y-69850000D03*
X142240000Y-67310000D03*
D10*
X142240000Y-64770000D03*
%TD*%
D13*
%TO.C,D16*%
X190895000Y-123190000D03*
X192645000Y-123190000D03*
%TD*%
D18*
%TO.C,REF\u002A\u002A*%
X138430000Y-123190000D03*
%TD*%
D13*
%TO.C,D10*%
X190895000Y-100330000D03*
X192645000Y-100330000D03*
%TD*%
%TO.C,D5*%
X190895000Y-80010000D03*
X192645000Y-80010000D03*
%TD*%
M02*
