%TF.GenerationSoftware,KiCad,Pcbnew,7.0.5*%
%TF.CreationDate,2023-12-08T14:02:35+09:00*%
%TF.ProjectId,analog_sw2,616e616c-6f67-45f7-9377-322e6b696361,rev?*%
%TF.SameCoordinates,Original*%
%TF.FileFunction,Soldermask,Bot*%
%TF.FilePolarity,Negative*%
%FSLAX46Y46*%
G04 Gerber Fmt 4.6, Leading zero omitted, Abs format (unit mm)*
G04 Created by KiCad (PCBNEW 7.0.5) date 2023-12-08 14:02:35*
%MOMM*%
%LPD*%
G01*
G04 APERTURE LIST*
G04 Aperture macros list*
%AMRoundRect*
0 Rectangle with rounded corners*
0 $1 Rounding radius*
0 $2 $3 $4 $5 $6 $7 $8 $9 X,Y pos of 4 corners*
0 Add a 4 corners polygon primitive as box body*
4,1,4,$2,$3,$4,$5,$6,$7,$8,$9,$2,$3,0*
0 Add four circle primitives for the rounded corners*
1,1,$1+$1,$2,$3*
1,1,$1+$1,$4,$5*
1,1,$1+$1,$6,$7*
1,1,$1+$1,$8,$9*
0 Add four rect primitives between the rounded corners*
20,1,$1+$1,$2,$3,$4,$5,0*
20,1,$1+$1,$4,$5,$6,$7,0*
20,1,$1+$1,$6,$7,$8,$9,0*
20,1,$1+$1,$8,$9,$2,$3,0*%
G04 Aperture macros list end*
%ADD10C,2.600000*%
%ADD11RoundRect,0.650000X0.650000X-1.850000X0.650000X1.850000X-0.650000X1.850000X-0.650000X-1.850000X0*%
%ADD12RoundRect,0.650000X0.650000X-6.350000X0.650000X6.350000X-0.650000X6.350000X-0.650000X-6.350000X0*%
%ADD13RoundRect,0.650000X-8.350000X-0.650000X8.350000X-0.650000X8.350000X0.650000X-8.350000X0.650000X0*%
%ADD14R,1.700000X1.700000*%
%ADD15O,1.700000X1.700000*%
%ADD16RoundRect,0.237500X-0.250000X-0.237500X0.250000X-0.237500X0.250000X0.237500X-0.250000X0.237500X0*%
%ADD17R,1.130000X1.130000*%
%ADD18C,1.130000*%
%ADD19RoundRect,0.250000X-0.475000X0.250000X-0.475000X-0.250000X0.475000X-0.250000X0.475000X0.250000X0*%
G04 APERTURE END LIST*
D10*
%TO.C,REF\u002A\u002A*%
X166370000Y-123190000D03*
%TD*%
%TO.C,REF\u002A\u002A*%
X138430000Y-123190000D03*
%TD*%
%TO.C,REF\u002A\u002A*%
X166370000Y-62230000D03*
%TD*%
%TO.C,REF\u002A\u002A*%
X138430000Y-62230000D03*
%TD*%
D11*
%TO.C,P1*%
X171450000Y-63500000D03*
%TD*%
%TO.C,P5*%
X171450000Y-121920000D03*
%TD*%
D12*
%TO.C,P4*%
X171450000Y-110490000D03*
%TD*%
%TO.C,P3*%
X171450000Y-92710000D03*
%TD*%
%TO.C,P2*%
X171450000Y-74930000D03*
%TD*%
D13*
%TO.C,P6*%
X185420000Y-74930000D03*
%TD*%
%TO.C,P7*%
X185420000Y-92710000D03*
%TD*%
%TO.C,P8*%
X185420000Y-110490000D03*
%TD*%
D14*
%TO.C,J1*%
X175260000Y-60965000D03*
D15*
X175260000Y-63505000D03*
X175260000Y-66045000D03*
X175260000Y-68585000D03*
X175260000Y-71125000D03*
%TD*%
D14*
%TO.C,J16*%
X162560000Y-114305000D03*
D15*
X162560000Y-116845000D03*
X162560000Y-119385000D03*
X162560000Y-121925000D03*
X162560000Y-124465000D03*
%TD*%
D16*
%TO.C,R7*%
X190857500Y-85090000D03*
X192682500Y-85090000D03*
%TD*%
D17*
%TO.C,U17*%
X148430000Y-72395000D03*
D18*
X148430000Y-74935000D03*
X148430000Y-77475000D03*
X148430000Y-80015000D03*
X148430000Y-82555000D03*
X148430000Y-85095000D03*
X148430000Y-87635000D03*
X148430000Y-90175000D03*
X156370000Y-90175000D03*
X156370000Y-87635000D03*
X156370000Y-85095000D03*
X156370000Y-82555000D03*
X156370000Y-80015000D03*
X156370000Y-77475000D03*
X156370000Y-74935000D03*
X156370000Y-72395000D03*
%TD*%
D14*
%TO.C,J7*%
X195580000Y-96525000D03*
D15*
X195580000Y-99065000D03*
X195580000Y-101605000D03*
X195580000Y-104145000D03*
X195580000Y-106685000D03*
%TD*%
D14*
%TO.C,J10*%
X142240000Y-78750000D03*
D15*
X142240000Y-81290000D03*
X142240000Y-83830000D03*
X142240000Y-86370000D03*
X142240000Y-88910000D03*
%TD*%
D16*
%TO.C,R11*%
X190857500Y-102870000D03*
X192682500Y-102870000D03*
%TD*%
D14*
%TO.C,J2*%
X175260000Y-78740000D03*
D15*
X175260000Y-81280000D03*
X175260000Y-83820000D03*
X175260000Y-86360000D03*
X175260000Y-88900000D03*
%TD*%
D14*
%TO.C,J17*%
X137160000Y-73665000D03*
D15*
X137160000Y-76205000D03*
X137160000Y-78745000D03*
X137160000Y-81285000D03*
X137160000Y-83825000D03*
X137160000Y-86365000D03*
X137160000Y-88905000D03*
X137160000Y-91445000D03*
X137160000Y-93985000D03*
X137160000Y-96525000D03*
X137160000Y-99065000D03*
X137160000Y-101605000D03*
X137160000Y-104145000D03*
X137160000Y-106685000D03*
X137160000Y-109225000D03*
X137160000Y-111765000D03*
%TD*%
D16*
%TO.C,R3*%
X190857500Y-67310000D03*
X192682500Y-67310000D03*
%TD*%
D14*
%TO.C,J14*%
X162560000Y-78750000D03*
D15*
X162560000Y-81290000D03*
X162560000Y-83830000D03*
X162560000Y-86370000D03*
X162560000Y-88910000D03*
%TD*%
D14*
%TO.C,J8*%
X195580000Y-114315000D03*
D15*
X195580000Y-116855000D03*
X195580000Y-119395000D03*
X195580000Y-121935000D03*
X195580000Y-124475000D03*
%TD*%
D14*
%TO.C,J18*%
X167640000Y-73660000D03*
D15*
X167640000Y-76200000D03*
X167640000Y-78740000D03*
X167640000Y-81280000D03*
X167640000Y-83820000D03*
X167640000Y-86360000D03*
X167640000Y-88900000D03*
X167640000Y-91440000D03*
X167640000Y-93980000D03*
X167640000Y-96520000D03*
X167640000Y-99060000D03*
X167640000Y-101600000D03*
X167640000Y-104140000D03*
X167640000Y-106680000D03*
X167640000Y-109220000D03*
X167640000Y-111760000D03*
%TD*%
D14*
%TO.C,J12*%
X142240000Y-114305000D03*
D15*
X142240000Y-116845000D03*
X142240000Y-119385000D03*
X142240000Y-121925000D03*
X142240000Y-124465000D03*
%TD*%
D17*
%TO.C,U18*%
X148430000Y-95255000D03*
D18*
X148430000Y-97795000D03*
X148430000Y-100335000D03*
X148430000Y-102875000D03*
X148430000Y-105415000D03*
X148430000Y-107955000D03*
X148430000Y-110495000D03*
X148430000Y-113035000D03*
X156370000Y-113035000D03*
X156370000Y-110495000D03*
X156370000Y-107955000D03*
X156370000Y-105415000D03*
X156370000Y-102875000D03*
X156370000Y-100335000D03*
X156370000Y-97795000D03*
X156370000Y-95255000D03*
%TD*%
D19*
%TO.C,C2*%
X153670000Y-82875000D03*
X153670000Y-84775000D03*
%TD*%
D14*
%TO.C,J4*%
X175260000Y-114310000D03*
D15*
X175260000Y-116850000D03*
X175260000Y-119390000D03*
X175260000Y-121930000D03*
X175260000Y-124470000D03*
%TD*%
D14*
%TO.C,J3*%
X175260000Y-96520000D03*
D15*
X175260000Y-99060000D03*
X175260000Y-101600000D03*
X175260000Y-104140000D03*
X175260000Y-106680000D03*
%TD*%
D16*
%TO.C,R10*%
X190857500Y-100330000D03*
X192682500Y-100330000D03*
%TD*%
D14*
%TO.C,J6*%
X195580000Y-78745000D03*
D15*
X195580000Y-81285000D03*
X195580000Y-83825000D03*
X195580000Y-86365000D03*
X195580000Y-88905000D03*
%TD*%
D16*
%TO.C,R4*%
X190857500Y-69850000D03*
X192682500Y-69850000D03*
%TD*%
%TO.C,R12*%
X190857500Y-105410000D03*
X192682500Y-105410000D03*
%TD*%
%TO.C,R9*%
X190857500Y-97790000D03*
X192682500Y-97790000D03*
%TD*%
%TO.C,R6*%
X190857500Y-82550000D03*
X192682500Y-82550000D03*
%TD*%
%TO.C,R14*%
X190857500Y-118110000D03*
X192682500Y-118110000D03*
%TD*%
%TO.C,R13*%
X190857500Y-115570000D03*
X192682500Y-115570000D03*
%TD*%
D14*
%TO.C,J13*%
X162560000Y-60970000D03*
D15*
X162560000Y-63510000D03*
X162560000Y-66050000D03*
X162560000Y-68590000D03*
X162560000Y-71130000D03*
%TD*%
D14*
%TO.C,J5*%
X195580000Y-61131000D03*
D15*
X195580000Y-63671000D03*
X195580000Y-66211000D03*
X195580000Y-68751000D03*
X195580000Y-71291000D03*
%TD*%
D16*
%TO.C,R8*%
X190857500Y-87630000D03*
X192682500Y-87630000D03*
%TD*%
D14*
%TO.C,J11*%
X142240000Y-96530000D03*
D15*
X142240000Y-99070000D03*
X142240000Y-101610000D03*
X142240000Y-104150000D03*
X142240000Y-106690000D03*
%TD*%
D19*
%TO.C,C1*%
X153670000Y-105735000D03*
X153670000Y-107635000D03*
%TD*%
D16*
%TO.C,R15*%
X190857500Y-120650000D03*
X192682500Y-120650000D03*
%TD*%
%TO.C,R5*%
X190857500Y-80010000D03*
X192682500Y-80010000D03*
%TD*%
%TO.C,R1*%
X190857500Y-62230000D03*
X192682500Y-62230000D03*
%TD*%
D14*
%TO.C,J15*%
X162560000Y-96530000D03*
D15*
X162560000Y-99070000D03*
X162560000Y-101610000D03*
X162560000Y-104150000D03*
X162560000Y-106690000D03*
%TD*%
D16*
%TO.C,R16*%
X190857500Y-123190000D03*
X192682500Y-123190000D03*
%TD*%
%TO.C,R2*%
X190857500Y-64770000D03*
X192682500Y-64770000D03*
%TD*%
D14*
%TO.C,J9*%
X142240000Y-60970000D03*
D15*
X142240000Y-63510000D03*
X142240000Y-66050000D03*
X142240000Y-68590000D03*
X142240000Y-71130000D03*
%TD*%
M02*
